<?xml version="1.0" encoding="UTF-8" standalone="no"?>
<!-- Created with Inkscape (http://www.inkscape.org/) -->

<svg
   version="1.1"
   id="svg1"
   width="82.087509"
   height="73.09687"
   viewBox="0 0 82.08751 73.096869"
   sodipodi:docname="agendinha_logo.png"
   inkscape:version="0.0"
   inkscape:export-filename="../favicon"
   inkscape:export-xdpi="96"
   inkscape:export-ydpi="96"
   xmlns:inkscape="http://www.inkscape.org/namespaces/inkscape"
   xmlns:sodipodi="http://sodipodi.sourceforge.net/DTD/sodipodi-0.dtd"
   xmlns="http://www.w3.org/2000/svg"
   xmlns:svg="http://www.w3.org/2000/svg">
  <defs
     id="defs1" />
  <sodipodi:namedview
     id="namedview1"
     pagecolor="#ffffff"
     bordercolor="#000000"
     borderopacity="0.25"
     inkscape:showpageshadow="2"
     inkscape:pageopacity="0.0"
     inkscape:pagecheckerboard="0"
     inkscape:deskcolor="#d1d1d1"
     inkscape:zoom="20.586114"
     inkscape:cx="48.770739"
     inkscape:cy="66.428273"
     inkscape:window-width="1892"
     inkscape:window-height="1028"
     inkscape:window-x="12"
     inkscape:window-y="36"
     inkscape:window-maximized="1"
     inkscape:current-layer="g1">
    <inkscape:page
       x="0"
       y="0"
       width="82.087509"
       height="73.09687"
       id="page2"
       margin="0"
       bleed="0" />
  </sodipodi:namedview>
  <g
     inkscape:groupmode="layer"
     inkscape:label="Image"
     id="g1"
     transform="translate(-0.37058992,-34.450063)">
    <rect
       style="fill:#ffffff;fill-opacity:1;stroke-width:1.03862"
       id="rect3"
       width="73.411194"
       height="67.168266"
       x="5.1099195"
       y="37.719551"
       ry="0.82583946" />
    <g
       id="g3"
       style="fill:#009ee0;fill-opacity:1">
      <path
         style="fill:#009ee0;fill-opacity:1"
         d="m 16.506772,37.140238 c 0,0 -4.695892,0.320174 -9.3562089,-1.031673 -4.6603173,-1.351848 -4.233418,2.59697 -4.233418,2.59697 L 2.419096,49.128993 0.99609834,68.375036 c 0,0 -0.32017447,5.371816 -0.60477399,7.328438 -0.28459953,1.956621 2.45467085,7.221712 2.45467085,7.221712 0,0 1.245123,1.494148 0.3913244,8.573561 -0.8537986,7.079413 -0.7470738,8.075512 -0.7470738,8.075512 0,0 -0.3913243,1.245121 -0.2134496,2.383521 0.1778747,1.1384 -1.1383981,1.74317 -0.1422998,3.30847 0.9960984,1.5653 2.3835211,1.81432 2.3835211,1.81432 l 10.7792065,0.17788 18.747994,0.10672 25.74875,0.16157 0.08717,-3.55374 -51.7677001,0.56549 c 0,0 -2.2363955,0.10402 -2.4444323,-3.84868 -0.2080368,-3.952702 1.4042483,-59.18647 1.4042483,-59.18647 0,0 0.3640644,-1.508267 1.820322,-1.508267 1.4562571,0 1.4042481,1.092194 2.8084971,1.196212 1.404248,0.104018 29.957298,-0.67612 29.957298,-0.67612 l 20.481412,-2.20111 0.157168,-2.827359 -40.305217,-1.036633 c 0,0 -1.354448,1.42305 -5.48596,2.690175 z"
         id="path1"
         sodipodi:nodetypes="cscccscscssccccccscssccccsc" />
      <path
         style="fill:#009ee0;fill-opacity:1"
         d="m 59.461545,103.96742 0.14915,3.57951 18.6433,-0.0497 c 0,0 2.53549,-1.39203 2.43606,-4.72297 -0.0994,-3.330935 -1.71038,-8.772402 -1.30711,-16.345059 0.40328,-7.572657 0.67213,-18.013067 0.67213,-18.013067 l 2.13885,-25.920115 c 0,0 1.24016,-3.169295 -1.65354,-5.787408 -2.89371,-2.618113 -10.88584,-1.240159 -10.88584,-1.240159 l -16.07611,-0.311744 0.43101,3.09578 17.43409,0.324053 c 0,0 4.05824,-1.085934 4.69816,1.079954 0.63992,2.165888 0.34458,5.587008 0.34458,5.587008 0,0 -2.35632,13.400332 -2.12656,18.6082 0.22976,5.207867 -0.91904,23.282231 -0.91904,23.282231 l -0.84245,14.627986 c 0,0 -0.26589,2.69241 -3.17084,2.53718 -2.90496,-0.15522 -9.96584,-0.33166 -9.96584,-0.33166 z"
         id="path2" />
    </g>
    <path
       style="fill:#e32585;fill-opacity:1;stroke-width:1.17767"
       d="m 41.239473,76.956971 12.356766,0.743693 c 0,0 1.544596,0.915316 -0.228829,3.604058 -1.773424,2.68874 -1.258559,3.604056 -1.258559,3.604056 0,0 -3.031984,4.805408 -12.928838,4.462165 -9.896854,-0.343244 -10.81217,-5.091445 -10.81217,-5.091445 0,0 -1.487388,-1.601803 -1.830632,-5.663518 -0.343244,-4.061715 -0.62928,-10.011268 -0.62928,-10.011268 0,0 2.231083,-11.784693 14.530641,-13.157666 12.299558,-1.372975 14.359019,4.347751 14.359019,4.347751 0,0 4.17613,-1.25856 2.631534,-3.661264 -1.544596,-2.402705 -5.606311,-6.464419 -16.189652,-5.549103 -10.58334,0.915316 -17.333795,7.8946 -17.333795,7.8946 0,0 -4.061715,6.121175 -4.404958,10.983791 -0.343244,4.862616 0.800902,12.928838 0.800902,12.928838 0,0 0.572072,9.95406 12.013522,13.443703 11.441448,3.489642 19.450463,-3.604057 19.450463,-3.604057 0,0 1.716218,-0.915316 3.089191,-3.31802 1.372975,-2.402705 -0.800901,-1.544596 3.661264,-4.690994 4.462166,-3.146399 2.288291,-10.011268 2.288291,-10.011268 0,0 -3.089192,-3.432435 -6.636042,-3.54685 -3.546849,-0.114411 -12.986044,0 -12.986044,0 0,0 -2.517119,1.601803 0.05721,6.292798 z"
       id="path3" />
  </g>
</svg>
