<svg width="27" height="30" viewBox="0 0 27 30" fill="none" xmlns="http://www.w3.org/2000/svg">
<g clip-path="url(#clip0_278_190)">
<path d="M21.1464 0H5.3856C2.41122 0 0 2.41122 0 5.3856V23.8392C0 26.8136 2.41122 29.2248 5.3856 29.2248H21.1464C24.1208 29.2248 26.532 26.8136 26.532 23.8392V5.3856C26.532 2.41122 24.1208 0 21.1464 0Z" fill="#FFE8F4"/>
<path d="M4.90439 8.61561L7.21801 6.28779C7.29143 6.21433 7.37711 6.1776 7.47504 6.1776C7.57293 6.1776 7.65838 6.21385 7.73139 6.28634C7.80441 6.35884 7.84091 6.44493 7.84091 6.5446C7.84091 6.64428 7.80441 6.73085 7.73139 6.80431L5.15766 9.39383C5.08546 9.46725 5.00125 9.504 4.905 9.504C4.80877 9.504 4.72413 9.46725 4.65113 9.39383L3.43271 8.16789C3.35969 8.09574 3.32433 8.00989 3.32661 7.91056C3.32889 7.81126 3.36606 7.72486 3.43812 7.65141C3.51017 7.57795 3.59573 7.54121 3.6948 7.54121C3.79388 7.54121 3.87992 7.57795 3.95293 7.65141L4.90439 8.61561Z" fill="#EF0079"/>
<path d="M22.7305 7.12801H10.0585C9.57737 7.12801 9.18732 7.51806 9.18732 7.99921C9.18732 8.48036 9.57737 8.87041 10.0585 8.87041H22.7305C23.2117 8.87041 23.6017 8.48036 23.6017 7.99921C23.6017 7.51806 23.2117 7.12801 22.7305 7.12801Z" fill="#EF0079"/>
<path d="M4.90439 15.4268L7.21801 13.099C7.29143 13.0256 7.37711 12.9888 7.47504 12.9888C7.57293 12.9888 7.65838 13.0251 7.73139 13.0976C7.80441 13.17 7.84091 13.2561 7.84091 13.3558C7.84091 13.4555 7.80441 13.5421 7.73139 13.6155L5.15766 16.205C5.08546 16.2785 5.00125 16.3152 4.905 16.3152C4.80877 16.3152 4.72413 16.2785 4.65113 16.205L3.43271 14.9791C3.35969 14.907 3.32433 14.8211 3.32661 14.7218C3.32889 14.6225 3.36606 14.5361 3.43812 14.4626C3.51017 14.3891 3.59573 14.3524 3.6948 14.3524C3.79388 14.3524 3.87992 14.3891 3.95293 14.4626L4.90439 15.4268Z" fill="#EF0079"/>
<path d="M22.7305 13.7809H10.0585C9.57737 13.7809 9.18732 14.1709 9.18732 14.6521C9.18732 15.1332 9.57737 15.5233 10.0585 15.5233H22.7305C23.2117 15.5233 23.6017 15.1332 23.6017 14.6521C23.6017 14.1709 23.2117 13.7809 22.7305 13.7809Z" fill="#EF0079"/>
<path d="M4.90439 22.238L7.21801 19.9102C7.29143 19.8368 7.37711 19.8 7.47504 19.8C7.57293 19.8 7.65838 19.8363 7.73139 19.9088C7.80441 19.9812 7.84091 20.0673 7.84091 20.167C7.84091 20.2667 7.80441 20.3533 7.73139 20.4267L5.15766 23.0163C5.08546 23.0897 5.00125 23.1264 4.905 23.1264C4.80877 23.1264 4.72413 23.0897 4.65113 23.0163L3.43271 21.7903C3.35969 21.7182 3.32433 21.6323 3.32661 21.533C3.32889 21.4337 3.36606 21.3473 3.43812 21.2739C3.51017 21.2004 3.59573 21.1636 3.6948 21.1636C3.79388 21.1636 3.87992 21.2004 3.95293 21.2739L4.90439 22.238Z" fill="#EF0079"/>
<path d="M22.7305 20.7504H10.0585C9.57737 20.7504 9.18732 21.1405 9.18732 21.6216C9.18732 22.1028 9.57737 22.4928 10.0585 22.4928H22.7305C23.2117 22.4928 23.6017 22.1028 23.6017 21.6216C23.6017 21.1405 23.2117 20.7504 22.7305 20.7504Z" fill="#EF0079"/>
<path d="M4.78824 8.45461L7.29195 5.9509C7.40481 5.83804 7.54143 5.78161 7.70181 5.78161C7.86219 5.78161 7.99879 5.83741 8.11165 5.94903C8.22451 6.06064 8.28098 6.19601 8.28098 6.35514C8.28098 6.51428 8.2257 6.64912 8.11513 6.75966L5.1981 9.66637C5.08684 9.77923 4.95212 9.83562 4.79394 9.83562C4.6357 9.83562 4.50015 9.77923 4.38729 9.66637L3.10425 8.3922C2.99139 8.27506 2.93347 8.13884 2.9305 7.98353C2.92753 7.82833 2.98185 7.69429 3.09347 7.58143C3.21102 7.46263 3.34814 7.40323 3.50484 7.40323C3.66148 7.40323 3.79525 7.46263 3.90615 7.58143L4.78824 8.45461Z" fill="#EF0079"/>
<path d="M4.78824 15.2658L7.29195 12.7621C7.40481 12.6492 7.54143 12.5928 7.70181 12.5928C7.86219 12.5928 7.99879 12.6487 8.11165 12.7603C8.22451 12.8719 8.28098 13.0072 8.28098 13.1664C8.28098 13.3255 8.2257 13.4603 8.11513 13.5709L5.1981 16.4776C5.08684 16.5905 4.95212 16.6468 4.79394 16.6468C4.6357 16.6468 4.50015 16.5905 4.38729 16.4776L3.10425 15.2034C2.99139 15.0863 2.93347 14.9501 2.9305 14.7948C2.92753 14.6395 2.98185 14.5055 3.09347 14.3927C3.21102 14.2739 3.34814 14.2145 3.50484 14.2145C3.66148 14.2145 3.79525 14.2739 3.90615 14.3927L4.78824 15.2658Z" fill="#EF0079"/>
<path d="M4.78824 22.077L7.29195 19.5732C7.40481 19.4604 7.54143 19.404 7.70181 19.404C7.86219 19.404 7.99879 19.4598 8.11165 19.5714C8.22451 19.683 8.28098 19.8184 8.28098 19.9775C8.28098 20.1367 8.2257 20.2715 8.11513 20.382L5.1981 23.2887C5.08684 23.4016 4.95212 23.458 4.79394 23.458C4.6357 23.458 4.50015 23.4016 4.38729 23.2887L3.10425 22.0146C2.99139 21.8974 2.93347 21.7612 2.9305 21.6059C2.92753 21.4507 2.98185 21.3167 3.09347 21.2038C3.21102 21.085 3.34814 21.0256 3.50484 21.0256C3.66148 21.0256 3.79525 21.085 3.90615 21.2038L4.78824 22.077Z" fill="#EF0079"/>
</g>
<defs>
<clipPath id="clip0_278_190">
<rect width="26.532" height="29.2248" fill="white"/>
</clipPath>
</defs>
</svg>
