<svg width="30" height="29" viewBox="0 0 30 29" fill="none" xmlns="http://www.w3.org/2000/svg">
<g clip-path="url(#clip0_278_311)">
<path d="M24.6241 4.032H4.89606C2.19208 4.032 6.10352e-05 6.22401 6.10352e-05 8.928V24.048C6.10352e-05 26.752 2.19208 28.944 4.89606 28.944H24.6241C27.328 28.944 29.5201 26.752 29.5201 24.048V8.928C29.5201 6.22401 27.328 4.032 24.6241 4.032Z" fill="#E8F0FF"/>
<path d="M10.224 2.23202C10.224 0.999316 9.22472 1.52588e-05 7.99202 1.52588e-05C6.75933 1.52588e-05 5.76003 0.999316 5.76003 2.23202V5.61602C5.76003 6.84872 6.75933 7.84802 7.99202 7.84802C9.22472 7.84802 10.224 6.84872 10.224 5.61602V2.23202Z" fill="#0C3784"/>
<path d="M24.408 2.23202C24.408 0.999316 23.4087 1.52588e-05 22.176 1.52588e-05C20.9433 1.52588e-05 19.944 0.999316 19.944 2.23202V5.61602C19.944 6.84872 20.9433 7.84802 22.176 7.84802C23.4087 7.84802 24.408 6.84872 24.408 5.61602V2.23202Z" fill="#0C3784"/>
<path d="M8.42398 12.24H5.25598C4.73904 12.24 4.31998 12.6591 4.31998 13.176V16.416C4.31998 16.9329 4.73904 17.352 5.25598 17.352H8.42398C8.94092 17.352 9.35998 16.9329 9.35998 16.416V13.176C9.35998 12.6591 8.94092 12.24 8.42398 12.24Z" fill="#0C3784"/>
<path d="M8.42398 19.296H5.25598C4.73904 19.296 4.31998 19.7151 4.31998 20.232V23.472C4.31998 23.989 4.73904 24.408 5.25598 24.408H8.42398C8.94092 24.408 9.35998 23.989 9.35998 23.472V20.232C9.35998 19.7151 8.94092 19.296 8.42398 19.296Z" fill="#BCD4FF"/>
<path d="M16.344 12.24H13.176C12.6591 12.24 12.24 12.6591 12.24 13.176V16.416C12.24 16.9329 12.6591 17.352 13.176 17.352H16.344C16.8609 17.352 17.28 16.9329 17.28 16.416V13.176C17.28 12.6591 16.8609 12.24 16.344 12.24Z" fill="#0C3784"/>
<path d="M16.344 19.296H13.176C12.6591 19.296 12.24 19.7151 12.24 20.232V23.472C12.24 23.989 12.6591 24.408 13.176 24.408H16.344C16.8609 24.408 17.28 23.989 17.28 23.472V20.232C17.28 19.7151 16.8609 19.296 16.344 19.296Z" fill="#BCD4FF"/>
<path d="M24.264 12.24H21.096C20.5791 12.24 20.16 12.6591 20.16 13.176V16.416C20.16 16.9329 20.5791 17.352 21.096 17.352H24.264C24.781 17.352 25.2 16.9329 25.2 16.416V13.176C25.2 12.6591 24.781 12.24 24.264 12.24Z" fill="#0C3784"/>
<path d="M24.264 19.296H21.096C20.5791 19.296 20.16 19.7151 20.16 20.232V23.472C20.16 23.989 20.5791 24.408 21.096 24.408H24.264C24.781 24.408 25.2 23.989 25.2 23.472V20.232C25.2 19.7151 24.781 19.296 24.264 19.296Z" fill="#BCD4FF"/>
</g>
<defs>
<clipPath id="clip0_278_311">
<rect width="29.52" height="28.944" fill="white"/>
</clipPath>
</defs>
</svg>
