<svg width="17" height="25" viewBox="0 0 17 25" fill="none" xmlns="http://www.w3.org/2000/svg">
<ellipse cx="8.225" cy="20.825" rx="8.225" ry="3.325" fill="#AC0258"/>
<path d="M8.4 10.5C8.9775 10.5 9.47187 10.2944 9.88312 9.88312C10.2944 9.47187 10.5 8.9775 10.5 8.4C10.5 7.8225 10.2944 7.32812 9.88312 6.91687C9.47187 6.50562 8.9775 6.3 8.4 6.3C7.8225 6.3 7.32812 6.50562 6.91687 6.91687C6.50562 7.32812 6.3 7.8225 6.3 8.4C6.3 8.9775 6.50562 9.47187 6.91687 9.88312C7.32812 10.2944 7.8225 10.5 8.4 10.5ZM8.4 21C5.5825 18.6025 3.47812 16.3756 2.08687 14.3194C0.695625 12.2631 0 10.36 0 8.61C0 5.985 0.844375 3.89375 2.53312 2.33625C4.22187 0.77875 6.1775 0 8.4 0C10.6225 0 12.5781 0.77875 14.2669 2.33625C15.9556 3.89375 16.8 5.985 16.8 8.61C16.8 10.36 16.1044 12.2631 14.7131 14.3194C13.3219 16.3756 11.2175 18.6025 8.4 21Z" fill="#E32585"/>
</svg>
