<svg width="100" height="100" viewBox="0 0 100 100" fill="none" xmlns="http://www.w3.org/2000/svg">
  <circle cx="50" cy="50" r="50" fill="#E8F0FF"/>
  <g opacity="0.8">
  <mask id="mask0_314_575" style="mask-type:alpha" maskUnits="userSpaceOnUse" x="15" y="15" width="73" height="70">
  <rect x="15" y="15" width="73" height="70" rx="7" fill="#030304"/>
  </mask>
  <g mask="url(#mask0_314_575)">
  <path d="M50.0001 50C46.7917 50 44.0452 48.8576 41.7605 46.5729C39.4758 44.2882 38.3334 41.5417 38.3334 38.3333C38.3334 35.125 39.4758 32.3785 41.7605 30.0937C44.0452 27.809 46.7917 26.6667 50.0001 26.6667C53.2084 26.6667 55.9549 27.809 58.2397 30.0937C60.5244 32.3785 61.6667 35.125 61.6667 38.3333C61.6667 41.5417 60.5244 44.2882 58.2397 46.5729C55.9549 48.8576 53.2084 50 50.0001 50ZM33.6668 73.3333C29.8008 73.3333 26.6667 70.1993 26.6667 66.3333V65.1667C26.6667 63.5139 27.0921 61.9948 27.9428 60.6094C28.7935 59.2239 29.9237 58.1667 31.3334 57.4375C34.3473 55.9305 37.4098 54.8003 40.5209 54.0469C43.632 53.2934 46.7917 52.9167 50.0001 52.9167C53.2084 52.9167 56.3681 53.2934 59.4792 54.0469C62.5904 54.8003 65.6529 55.9305 68.6667 57.4375C70.0765 58.1667 71.2067 59.2239 72.0574 60.6094C72.9081 61.9948 73.3334 63.5139 73.3334 65.1667V66.3333C73.3334 70.1993 70.1994 73.3333 66.3334 73.3333H33.6668ZM32.5001 65.1667C32.5001 66.4553 33.5447 67.5 34.8334 67.5H65.1667C66.4554 67.5 67.5001 66.4553 67.5001 65.1667C67.5001 64.6319 67.3664 64.1458 67.099 63.7083C66.8317 63.2708 66.4792 62.9305 66.0417 62.6875C63.4167 61.375 60.7674 60.3906 58.0938 59.7344C55.4202 59.0781 52.7223 58.75 50.0001 58.75C47.2779 58.75 44.5799 59.0781 41.9063 59.7344C39.2327 60.3906 36.5834 61.375 33.9584 62.6875C33.5209 62.9305 33.1685 63.2708 32.9011 63.7083C32.6338 64.1458 32.5001 64.6319 32.5001 65.1667ZM50.0001 44.1667C51.6042 44.1667 52.9775 43.5955 54.1199 42.4531C55.2622 41.3108 55.8334 39.9375 55.8334 38.3333C55.8334 36.7292 55.2622 35.3559 54.1199 34.2135C52.9775 33.0712 51.6042 32.5 50.0001 32.5C48.3959 32.5 47.0227 33.0712 45.8803 34.2135C44.7379 35.3559 44.1667 36.7292 44.1667 38.3333C44.1667 39.9375 44.7379 41.3108 45.8803 42.4531C47.0227 43.5955 48.3959 44.1667 50.0001 44.1667Z" fill="#071F4B"/>
  </g>
  </g>
</svg>
