<svg width="20" height="20" viewBox="0 0 20 20" fill="none" xmlns="http://www.w3.org/2000/svg">
<path d="M16.7805 19.8C14.718 19.8 12.6802 19.3504 10.6672 18.4511C8.65425 17.5519 6.82275 16.2772 5.17275 14.6272C3.52275 12.9772 2.24812 11.1457 1.34887 9.13275C0.449625 7.11975 0 5.082 0 3.0195C0 2.7225 0.099 2.475 0.297 2.277C0.495 2.079 0.7425 1.98 1.0395 1.98H5.049C5.28 1.98 5.48625 2.05837 5.66775 2.21512C5.84925 2.37187 5.9565 2.5575 5.9895 2.772L6.633 6.237C6.666 6.501 6.65775 6.72375 6.60825 6.90525C6.55875 7.08675 6.468 7.2435 6.336 7.3755L3.93525 9.801C4.26525 10.4115 4.65712 11.0014 5.11087 11.5706C5.56462 12.1399 6.06375 12.6885 6.60825 13.2165C7.11975 13.728 7.656 14.2024 8.217 14.6396C8.778 15.0769 9.372 15.477 9.999 15.84L12.3255 13.5135C12.474 13.365 12.6679 13.2536 12.9071 13.1794C13.1464 13.1051 13.3815 13.0845 13.6125 13.1175L17.028 13.8105C17.259 13.8765 17.4487 13.9961 17.5972 14.1694C17.7457 14.3426 17.82 14.5365 17.82 14.751V18.7605C17.82 19.0575 17.721 19.305 17.523 19.503C17.325 19.701 17.0775 19.8 16.7805 19.8ZM10.89 1.98C10.6095 1.98 10.3744 1.88512 10.1846 1.69537C9.99487 1.50562 9.9 1.2705 9.9 0.99C9.9 0.7095 9.99487 0.474375 10.1846 0.284625C10.3744 0.094875 10.6095 0 10.89 0H18.81C19.0905 0 19.3256 0.094875 19.5154 0.284625C19.7051 0.474375 19.8 0.7095 19.8 0.99C19.8 1.2705 19.7051 1.50562 19.5154 1.69537C19.3256 1.88512 19.0905 1.98 18.81 1.98H10.89ZM10.89 5.94C10.6095 5.94 10.3744 5.84512 10.1846 5.65537C9.99487 5.46562 9.9 5.2305 9.9 4.95C9.9 4.6695 9.99487 4.43437 10.1846 4.24462C10.3744 4.05487 10.6095 3.96 10.89 3.96H18.81C19.0905 3.96 19.3256 4.05487 19.5154 4.24462C19.7051 4.43437 19.8 4.6695 19.8 4.95C19.8 5.2305 19.7051 5.46562 19.5154 5.65537C19.3256 5.84512 19.0905 5.94 18.81 5.94H10.89ZM10.89 9.9C10.6095 9.9 10.3744 9.80512 10.1846 9.61537C9.99487 9.42562 9.9 9.1905 9.9 8.91C9.9 8.6295 9.99487 8.39437 10.1846 8.20462C10.3744 8.01487 10.6095 7.92 10.89 7.92H18.81C19.0905 7.92 19.3256 8.01487 19.5154 8.20462C19.7051 8.39437 19.8 8.6295 19.8 8.91C19.8 9.1905 19.7051 9.42562 19.5154 9.61537C19.3256 9.80512 19.0905 9.9 18.81 9.9H10.89Z" fill="#EF0079"/>
<path d="M10.89 1.98C10.6095 1.98 10.3744 1.88512 10.1846 1.69537C9.9949 1.50562 9.90002 1.2705 9.90002 0.99C9.90002 0.7095 9.9949 0.474375 10.1846 0.284625C10.3744 0.094875 10.6095 0 10.89 0H18.81C19.0905 0 19.3256 0.094875 19.5154 0.284625C19.7051 0.474375 19.8 0.7095 19.8 0.99C19.8 1.2705 19.7051 1.50562 19.5154 1.69537C19.3256 1.88512 19.0905 1.98 18.81 1.98H10.89ZM10.89 5.94C10.6095 5.94 10.3744 5.84512 10.1846 5.65537C9.9949 5.46562 9.90002 5.2305 9.90002 4.95C9.90002 4.6695 9.9949 4.43437 10.1846 4.24462C10.3744 4.05487 10.6095 3.96 10.89 3.96H18.81C19.0905 3.96 19.3256 4.05487 19.5154 4.24462C19.7051 4.43437 19.8 4.6695 19.8 4.95C19.8 5.2305 19.7051 5.46562 19.5154 5.65537C19.3256 5.84512 19.0905 5.94 18.81 5.94H10.89ZM10.89 9.9C10.6095 9.9 10.3744 9.80512 10.1846 9.61537C9.9949 9.42562 9.90002 9.1905 9.90002 8.91C9.90002 8.6295 9.9949 8.39437 10.1846 8.20462C10.3744 8.01487 10.6095 7.92 10.89 7.92H18.81C19.0905 7.92 19.3256 8.01487 19.5154 8.20462C19.7051 8.39437 19.8 8.6295 19.8 8.91C19.8 9.1905 19.7051 9.42562 19.5154 9.61537C19.3256 9.80512 19.0905 9.9 18.81 9.9H10.89Z" fill="#AC0258"/>
</svg>
